/* XPM */
static char *Ice1705075653[] = {
/* columns rows colors chars-per-pixel */
"48 48 7 1 ",
"  c None",
". c #66779E",
"X c #588DBE",
"o c #7782AD",
"O c #B3B9D1",
"+ c #B9BFFB",
"@ c #E9EBFF",
/* pixels */
"                   @@++++++++                   ",
"               @@@@@+XX++@+++++++               ",
"             @@@@@@+XXOX++@+++++++X             ",
"           @@@@@@@@@+++++@@@@+++++X..           ",
"          @@@@@@OO@@@@@@@@@@@@@@++XX..          ",
"         @@@@@@OOOO@@@@@@@@@@@@@@++XX..         ",
"       @@@@@@@OOO@@@@@@@@@@@@@@@@+++XX..o       ",
"      @@@@@@@@@@@@@@@@@@@@@@@@@@@@+++X...o      ",
"      @@@@@@@@@@+++@@@@@@@@@@@@@@@++++X..X      ",
"     @@@@@@@@++++++@@@@@@@@@@@@@@@++++X.XXo     ",
"    @@@@@@++++XXXX++@@@@@@@@@@@@@@@++XXOOXXo    ",
"   @@@@@@+++X@@XX+++@@@@OO@@@@@@@@@++XOOOXXoo   ",
"   @@@@@@++X@@@X++@@@@@@@OOO@+@@@@+++XXOXXooo   ",
"  @@@@@@@@++X@++@@@@@@@@@@OO@@+@@@++++XXX+oooo  ",
"  @@@@@@@@@++X+@@@@@O@@@@OO@@@@+@@@@++++++oooo  ",
" @@@@@@@@@@@+X+@@@@@@OOOOOO@@@@+@@@@+++++o+oooo ",
" @@@@@@O@@@@XX+@@@@@@@OOO@@@@@@+X@@@@+++++ooooo ",
" @@@@@OO@@@@X+@@@@@@@@@@@@@@@@+XX@@@@+++++ooooo ",
" @@@@@OO@@@+X+@@@@@@@@@@@@@@@++@++@@+++++o+oooo ",
"++@@@@O@@@@+X+@@@@@@@@@@@@@@@@@+++++++++++oooooo",
"++@@@@@@@@@@+X+@@@@@@@@@@@@@@@@@@+++++++++oooooo",
"++@@@@@@@@@@@++@@@@@@@@@+++@@@@@@+X++++++o+ooooo",
"+++@@@@@@@@@@@@@@@O@O@@++++@@@@++X++++++o+oooooo",
"+++@@@@@@@+@@@@@@OOO@@@++X++@@@@@+@+++++o+oooooo",
"++++@@@@@+@@@@@@O@O@@@@@++X++@@@@@@++++o+ooooooo",
"++++@@@@+++@@@@@@@@@@@@++XX++@@@@+++++++o+oooooo",
"+XX+@@@@@++@@@@@@@@@@@@+++XX+@@+++++++o+oooooooo",
"XXX+@@@@@@@+@@@@++@@@@++X@X++++++O+++++o+ooooooo",
"XO.+@@@@@@@@@@@++++++++X@@++@+++OO++++o++ooooooo",
"+O.++@+++@@@@@++XXX+XXX@@X+++++OO+++o+o+++XXooo ",
"+O+++++++++@@++@@XXX@@XX@++++++++++++o++XXXoooo ",
"++++++++++++@++@++X@@++XX+++++++++++o++..X.oooo ",
" +++++++++++@++++XXX++++++++++++++o+o+o...ooooo ",
"  ++++++++++++++@+XXXXX++++++++++o+o+o....oooo  ",
"  ++++++++++++++++++X+++++++++++o+o+o....ooooo  ",
"   +o+++++++++++++++++++++++++o+o++Xoo..ooooo   ",
"   o+o+o++@++++++++++++++++++o+o+oo+o..oooooo   ",
"    o+o+o@++++++++++++++++o+o+o+oo+XX..ooooo    ",
"     oo+o+o+++++++++++++o+o+o+ooooo++.ooooo     ",
"      oo+o+o+o+o+o+o+o+o+o+o+ooooooooooooo      ",
"      ooooo+o+o+o+o+o+o+o+oooooooooooooooo      ",
"       ooooooooo+o+o+o+o+oooooooooooooooo       ",
"         oooooooooooooooooooooooooooooo         ",
"          oooooooooooooooooooooooooooo          ",
"           oooooooooooooooooooooooooo           ",
"             oooooooooooooooooooooo             ",
"               oooooooooooooooooo               ",
"                   oooooooooo                   "
};
