/* XPM */
static char *Baren1705089869[] = {
/* columns rows colors chars-per-pixel */
"48 48 4 1 ",
"  c None",
". c #4A5462",
"X c #477D85",
"o c #8B93AF",
/* pixels */
"                   oooooooooo                   ",
"               oooooooooooooooooo               ",
"             oooooooooooooooooooooo             ",
"           oooooooooooooooooooooooooo           ",
"          oooooooooooooooo..ooooooooo.          ",
"         ooooooooooooooooooo.ooooooooo.         ",
"       oooooooooooooooooooooooooooooooX..       ",
"      ooooooooooooooooooooooooooooooooo...      ",
"      ooooooooooooXXXoooooooooooooXXoooX..      ",
"     ooooooooooooXXXXoooooooooooooo..ooXX..     ",
"    ooooooooooooXXX.ooooooooooooooooooooX...    ",
"   oooooooooooooX..oooooooooooooooooooooXX...   ",
"   ooooooooooooooooooooooooooooooooooooXX....   ",
"  ooooooo.ooooooooooooooooooooooXXooooooXX....  ",
"  ooooooo.oooooooooooXoooooooooXoooooooXXX....  ",
" ooooooo.oooooooooooXXooooooooooooooooooX...... ",
" ooooooooooooooXooooooooooooooooooooooooXX..... ",
" oooooooooooooXooooooooooooooXXoooXXoooXXX..... ",
" oooooooooooooooooooooooooooXXXXoXXX.oXoX...... ",
"oooooooooooooooooXXXooooooooXXX.ooX.ooXoXX......",
"ooooooooXXooooooXXXXXooooooooX.ooooooXoX.X......",
"ooooooooXX.oooooXXXXXoooooooooooooooXoXXX.......",
"oooooooXXX.oooooXXXX.oooooooooooooooXoXX.X......",
"oooooooX..ooooooo...oooooooooooooooXoXX..X......",
"oooooooooooooooooooooooooooooooooXXoXXX.X.......",
"ooooooooooooooooooooooooooooooooXXX.XXX..X......",
"ooooooooooooooooooooXXooooooooooXXXXoX.X........",
"oooooooooXoooooooooX.oooooooooooXXXXXXX.X.......",
".ooooooooXooooooooooooooooooooooXXXXXXXX........",
" .oooooooooooooXXooooooooooooooXoXXXXX.X....... ",
" .XoooooooooooXXXXooXXooooooXXXoXXXXX.X........ ",
" ..XXoooooooooXXX.oXXX.ooooXXXXoXXXX.X.X....... ",
" ...XXooooooooo..oo.X.oooooXXXXXXXXX........... ",
"  ..XXXoXoXooooooooo.oooXoXXXXX.XXX...........  ",
"  ....XXXoXoXoXoXoXoooXoXoXXXX.XXX...X........  ",
"   ....X.XoXoXoXoXXXoXoXoXXX..XX.X..X........   ",
"   .....X.X.XoXoXXX.XoXXXXXXXXX.X.XX.........   ",
"    .......X.X.XX.XXXXXXXXXXXX.X.X..........    ",
"     ........X.X.X.XXXXXXXXX.X.X.X.........     ",
"      ..........X.X.X.X.X.X.X.X...........      ",
"      .............X.X.X.X.X..............      ",
"       ................X.X...............       ",
"         ..............................         ",
"          ............................          ",
"           ..........................           ",
"             ......................             ",
"               ..................               ",
"                   ..........                   "
};
